<?xml version="1.0" encoding="utf-8"?>
<!-- Generator: Adobe Illustrator 15.1.0, SVG Export Plug-In . SVG Version: 6.00 Build 0)  -->
<!DOCTYPE svg PUBLIC "-//W3C//DTD SVG 1.1//EN" "http://www.w3.org/Graphics/SVG/1.1/DTD/svg11.dtd">
<svg version="1.1" id="Layer_1" xmlns="http://www.w3.org/2000/svg" xmlns:xlink="http://www.w3.org/1999/xlink" x="0px" y="0px"
	 width="14.418px" height="16.383px" viewBox="0 0 14.418 16.383" enable-background="new 0 0 14.418 16.383" xml:space="preserve">
<path fill="#FFFFFF" d="M0.637,1.408L0,16.012l6.986,0.207v-5.871H4.928V7.982h2.059c-0.007-0.83-0.098-1.835,0.061-2.565
	c0.36-1.661,1.476-2.366,3.564-2.319c0.419,0.026,0.84,0.052,1.26,0.077v2.136c-0.757-0.009-1.729-0.097-2.15,0.245
	C9.285,5.909,9.438,7.214,9.443,7.982h2.351c-0.102,0.789-0.204,1.578-0.307,2.365H9.443v5.944l3.069,0.091L14.418,0L0.637,1.408z"
	/>
</svg>
