<?xml version="1.0" encoding="utf-8"?>
<!-- Generator: Adobe Illustrator 15.1.0, SVG Export Plug-In . SVG Version: 6.00 Build 0)  -->
<!DOCTYPE svg PUBLIC "-//W3C//DTD SVG 1.1//EN" "http://www.w3.org/Graphics/SVG/1.1/DTD/svg11.dtd">
<svg version="1.1" id="Layer_1" xmlns="http://www.w3.org/2000/svg" xmlns:xlink="http://www.w3.org/1999/xlink" x="0px" y="0px"
	 width="23.114px" height="19.066px" viewBox="0 0 23.114 19.066" enable-background="new 0 0 23.114 19.066" xml:space="preserve">
<path fill="#FFFFFF" d="M8.254,12.121c-0.601,0.114-1.161,0.244-1.607,0.516c-1.357,0.825-1.104,2.604,0.145,3.339
	c1.4,0.825,4.082,0.666,4.803-0.639c0.812-1.472-1.204-3.313-2.515-3.298C8.804,12.066,8.529,12.094,8.254,12.121 M6.75,5.03
	C6.242,6.745,7.546,9.475,9.265,9.091c2.64-0.59,1.405-5.271-1.093-5.236C7.4,4.167,7,4.184,6.75,5.03 M1.396,0L0,19.066
	l21.207-0.383l1.907-16.586L1.396,0z M13.388,3.216c-0.378,0.233-0.756,0.467-1.134,0.701h-1.113
	c0.233,0.227,0.467,0.453,0.701,0.68c0.691,0.929,0.745,2.441,0.041,3.401c-0.354,0.48-1.736,1.206-1.588,2
	c0.124,0.659,1.71,1.521,2.165,2.123c1.542,2.04-0.262,4.08-1.896,4.741c-2.354,0.95-6.011,0.396-6.474-1.855
	c-0.5-2.438,2.79-3.477,4.989-3.483l-0.021-0.062c-0.479-0.374-0.672-1.244-0.351-1.897V9.544C6.662,9.832,4.687,8.42,5.039,6.328
	c0.092-0.55,0.139-0.984,0.371-1.381C5.91,4.09,6.736,3.59,7.821,3.318l1.113-0.144h4.474L13.388,3.216z M18.088,10.349h-1.855
	v1.854h-0.948v-1.854h-1.855V9.441h1.855V7.586h0.948v1.855h1.855V10.349z"/>
</svg>
