<?xml version="1.0" encoding="utf-8"?>
<!-- Generator: Adobe Illustrator 15.1.0, SVG Export Plug-In . SVG Version: 6.00 Build 0)  -->
<!DOCTYPE svg PUBLIC "-//W3C//DTD SVG 1.1//EN" "http://www.w3.org/Graphics/SVG/1.1/DTD/svg11.dtd">
<svg version="1.1" id="Layer_1" xmlns="http://www.w3.org/2000/svg" xmlns:xlink="http://www.w3.org/1999/xlink" x="0px" y="0px"
	 width="17.904px" height="19.684px" viewBox="0 0 17.904 19.684" enable-background="new 0 0 17.904 19.684" xml:space="preserve">
<path fill="#FFFFFF" d="M0,0.763l0.761,18.921l16.765-0.254L17.904,0L0,0.763z M1.634,8.261C1.396,8.204,1.146,7.988,1.018,7.814
	c-0.414-0.581,0.068-1.33,0.561-1.455c0.436-0.007,0.871-0.013,1.306-0.02c0.461,0.007,0.92,0.013,1.38,0.02
	c0.431,0.103,1.002,0.805,0.635,1.417C4.811,7.92,4.571,8.155,4.414,8.224C4.241,8.299,1.915,8.328,1.634,8.261 M14.056,11.376
	c-0.083,0.385-0.172,0.766-0.316,1.1c-0.757,1.757-2.202,2.634-4.14,2.985c-0.873,0.158-1.841-0.169-2.481-0.446
	C5.23,14.191,3.441,11.58,4.544,8.782c0.515-1.305,1.474-2.286,2.76-2.814C7.652,5.867,8,5.767,8.35,5.669
	c0.155-0.02,0.31-0.037,0.465-0.056C11.381,5.6,12.93,6.781,13.702,8.56C14,9.247,14.273,10.359,14.056,11.376 M17.227,5.296
	C17.176,5.513,17,5.765,16.836,5.873c-0.256,0.17-2.331,0.244-2.742,0.095c-0.222-0.082-0.431-0.29-0.522-0.505
	c-0.119-0.274-0.097-2.424,0.018-2.667c0.126-0.264,0.334-0.354,0.597-0.484c0.715-0.009,2.283-0.14,2.707,0.149
	c0.161,0.111,0.288,0.354,0.334,0.578V5.296z M8.927,6.21C8.518,6.368,8.024,6.337,7.641,6.489C6.488,6.945,5.613,7.815,5.16,8.97
	c-0.965,2.449,0.558,4.728,2.237,5.466c0.492,0.215,1.249,0.538,2.033,0.41c1.909-0.314,3.124-1.115,3.768-2.669
	C14.511,9.018,11.993,6.163,8.927,6.21 M9.561,13.596C7.441,13.95,5.643,11.727,6.279,9.66c0.284-0.926,0.957-1.634,1.827-1.978
	C8.361,7.62,8.616,7.559,8.87,7.496c1.693-0.011,2.674,0.684,3.172,1.848C12.972,11.512,11.325,13.3,9.561,13.596"/>
</svg>
