<?xml version="1.0" encoding="utf-8"?>
<!-- Generator: Adobe Illustrator 15.1.0, SVG Export Plug-In . SVG Version: 6.00 Build 0)  -->
<!DOCTYPE svg PUBLIC "-//W3C//DTD SVG 1.1//EN" "http://www.w3.org/Graphics/SVG/1.1/DTD/svg11.dtd">
<svg version="1.1" id="Layer_1" xmlns="http://www.w3.org/2000/svg" xmlns:xlink="http://www.w3.org/1999/xlink" x="0px" y="0px"
	 width="14.418px" height="16.383px" viewBox="0 0 14.418 16.383" enable-background="new 0 0 14.418 16.383" xml:space="preserve">
<path fill="#FFFFFF" d="M0.638,1.408L0,16.012l12.514,0.371L14.418,0L0.638,1.408z M2.046,13.691V6.919
	c0.7-0.004,1.4-0.008,2.1-0.012c0.004,2.261,0.008,4.522,0.012,6.784H2.046z M3.339,5.982C2.356,6.228,1.634,5.151,1.964,4.298
	c0.105-0.273,0.365-0.537,0.629-0.653c0.13-0.034,0.26-0.07,0.391-0.106C4.624,3.52,4.744,5.629,3.339,5.982 M12.033,13.691H9.935
	c-0.004-0.333-0.009-0.665-0.013-0.996c0-1.039,0.153-2.999-0.202-3.642C9.599,8.833,9.365,8.683,9.092,8.614
	c-0.509-0.126-1.013,0.132-1.21,0.38c-0.306,0.384-0.309,1.052-0.309,1.744v2.953H5.475V6.907h2.017v0.912
	c0.144-0.059,0.242-0.332,0.355-0.438c0.266-0.249,0.616-0.468,1.02-0.569C9.147,6.74,9.563,6.709,9.888,6.765
	c0.968,0.166,1.391,0.375,1.802,1.091c0.338,0.592,0.344,1.506,0.344,2.42V13.691z"/>
</svg>
