<?xml version="1.0" encoding="utf-8"?>
<!-- Generator: Adobe Illustrator 15.1.0, SVG Export Plug-In . SVG Version: 6.00 Build 0)  -->
<!DOCTYPE svg PUBLIC "-//W3C//DTD SVG 1.1//EN" "http://www.w3.org/Graphics/SVG/1.1/DTD/svg11.dtd">
<svg version="1.1" id="Layer_1" xmlns="http://www.w3.org/2000/svg" xmlns:xlink="http://www.w3.org/1999/xlink" x="0px" y="0px"
	 width="16.458px" height="18.59px" viewBox="0 0 16.458 18.59" enable-background="new 0 0 16.458 18.59" xml:space="preserve">
<path fill="#FFFFFF" d="M14.135,3.376L0,0l0.179,17.832l16.279,0.758L14.135,3.376z M14.009,11.726
	c-0.115,0.517-0.267,0.996-0.461,1.438c-0.73,1.675-2.154,2.863-4.004,3.427c-0.594,0.181-1.502,0.377-2.314,0.237
	c-0.43-0.073-0.841-0.173-1.231-0.237c0.211-0.409,0.476-0.796,0.624-1.276c0.153-0.603,0.306-1.205,0.46-1.809l0.029,0.015
	c0.369,1.003,2.287,0.828,3.085,0.342c1.111-0.679,2.317-2.865,1.721-4.821c-0.286-0.935-0.865-1.637-1.617-2.106
	C9.959,6.721,9.533,6.553,9.099,6.444C8.627,6.327,7.966,6.282,7.438,6.371C5.394,6.716,4.063,7.647,3.596,9.545
	c-0.268,1.092,0.099,2.323,0.697,2.803c0.193,0.154,0.424,0.405,0.741,0.342c0.072-0.102,0.303-0.676,0.237-0.875
	c-0.093-0.124-0.187-0.248-0.281-0.371c-0.189-0.312-0.315-0.886-0.222-1.409c0.233-1.32,0.957-2.13,2.149-2.492
	c0.317-0.096,0.794-0.188,1.217-0.118C8.605,7.502,8.97,7.525,9.307,7.72c1.508,0.876,1.498,3.186,0.519,4.644
	c-0.254,0.377-0.733,0.956-1.453,0.83c-1.576-0.276-0.607-1.992-0.371-3.012c0.168-0.724-0.112-1.554-0.949-1.394
	c-0.684,0.131-1.224,0.925-1.067,1.869c0.034,0.207,0.215,0.674,0.192,0.815c-0.276,1.151-0.554,2.305-0.83,3.457
	c-0.03,0.257-0.06,0.514-0.09,0.77c-0.004,0.204-0.01,0.406-0.015,0.609c-1.69-0.797-2.921-2.084-3.515-3.977
	c-0.125-0.399-0.146-0.791-0.224-1.26C1.38,10.313,1.515,9.415,1.697,8.817C1.921,8.084,2.232,7.423,2.632,6.86
	c0.783-1.105,1.917-1.953,3.353-2.403C6.31,4.389,6.637,4.319,6.963,4.249C7.126,4.234,7.29,4.22,7.452,4.205
	c3.167-0.054,5.209,1.65,6.141,3.826C13.99,8.96,14.299,10.422,14.009,11.726"/>
</svg>
