<?xml version="1.0" encoding="utf-8"?>
<!-- Generator: Adobe Illustrator 15.1.0, SVG Export Plug-In . SVG Version: 6.00 Build 0)  -->
<!DOCTYPE svg PUBLIC "-//W3C//DTD SVG 1.1//EN" "http://www.w3.org/Graphics/SVG/1.1/DTD/svg11.dtd">
<svg version="1.1" id="Layer_1" xmlns="http://www.w3.org/2000/svg" xmlns:xlink="http://www.w3.org/1999/xlink" x="0px" y="0px"
	 width="72.882px" height="143.239px" viewBox="0 0 72.882 143.239" enable-background="new 0 0 72.882 143.239"
	 xml:space="preserve">
<path fill="#FFFFFF" d="M69.091,61.389l3.791-32.586l-12.453,1.273l2.977-25.904L20.209,0L18.73,20.201L0,20.998L1.518,58.63
	l33.339-0.503l0.401-20.525l3.847-0.069l-0.33,35.222l-16.29-12.501l13.956,15.721c0,0,0.537,45.824-1.073,52.105
	c-0.416,1.609-18.948,15.159-18.948,15.159l35.265-0.04l-12.664-15.889l1.33-49.457l15.098-16.845l-13.428,8.48l-2.812-31.957
	l6.008-0.109l-1.014,23.232L69.091,61.389z M22.86,45.473l-9.853-1.133l-0.375-13.267h14.392L22.86,45.473z M59.237,48.505
	l-6.061-0.376l0.381-9.095l6.816-1.134L59.237,48.505z M59.081,7.768l-1.723,8.283l-7.785-3.115l-0.156-5.515L59.081,7.768z"/>
</svg>
