<?xml version="1.0" encoding="utf-8"?>
<!-- Generator: Adobe Illustrator 15.1.0, SVG Export Plug-In . SVG Version: 6.00 Build 0)  -->
<!DOCTYPE svg PUBLIC "-//W3C//DTD SVG 1.1//EN" "http://www.w3.org/Graphics/SVG/1.1/DTD/svg11.dtd">
<svg version="1.1" id="Layer_1" xmlns="http://www.w3.org/2000/svg" xmlns:xlink="http://www.w3.org/1999/xlink" x="0px" y="0px"
	 width="14.418px" height="16.383px" viewBox="0 0 14.418 16.383" enable-background="new 0 0 14.418 16.383" xml:space="preserve">
<path fill="#FFFFFF" d="M0.638,1.408L0,16.012l12.514,0.371L14.418,0L0.638,1.408z M10.604,14.112
	c-0.611,0.199-1.179,0.487-1.896,0.619c-0.808,0.147-1.85,0.022-2.44-0.183c-2.696-0.933-1.994-3.71-1.969-7.143H2.916
	C2.928,6.8,2.939,6.191,2.951,5.585C4.321,5.313,5.395,3.879,5.43,2.27h1.822v3.17h2.951v1.967H7.252
	c-0.043,2.435-0.739,6.163,2.332,5.211c0.34-0.169,0.681-0.339,1.021-0.51V14.112z"/>
</svg>
