<?xml version="1.0" encoding="utf-8"?>
<!-- Generator: Adobe Illustrator 15.1.0, SVG Export Plug-In . SVG Version: 6.00 Build 0)  -->
<!DOCTYPE svg PUBLIC "-//W3C//DTD SVG 1.1//EN" "http://www.w3.org/Graphics/SVG/1.1/DTD/svg11.dtd">
<svg version="1.1" id="Layer_1" xmlns="http://www.w3.org/2000/svg" xmlns:xlink="http://www.w3.org/1999/xlink" x="0px" y="0px"
	 width="17.904px" height="19.684px" viewBox="0 0 17.904 19.684" enable-background="new 0 0 17.904 19.684" xml:space="preserve">
<path fill="#FFFFFF" d="M0,0.763l0.762,18.921l16.764-0.254L17.904,0L0,0.763z M15.79,6.692c-0.184,0.147-0.367,0.295-0.55,0.443
	c0.073,4.681-2.791,7.913-6.324,8.981c-2.167,0.654-4.548,0.303-6.283-0.457c-0.362-0.158-0.85-0.335-1.114-0.604
	c1.694,0.059,2.843-0.18,3.92-0.833c0.237-0.144,0.516-0.271,0.698-0.47c-1.339,0.02-2.715-1.082-2.914-2.175
	c0.474,0.028,0.956,0.048,1.383-0.054c-0.228-0.076-0.456-0.152-0.685-0.229c-0.719-0.314-1.246-0.921-1.556-1.651
	C2.277,9.441,2.006,8.736,2.136,8.411c0.389,0.186,0.795,0.372,1.369,0.375C3.501,8.777,3.496,8.769,3.492,8.76
	c-0.226-0.1-0.432-0.338-0.578-0.523c-0.741-0.938-1.1-2.388-0.349-3.625c0.018,0.014,0.036,0.026,0.054,0.04
	C2.796,5.021,3.544,5.642,3.881,5.9c1.388,1.064,2.874,1.778,5.156,1.986C8.52,6.266,9.812,4.731,10.796,4.302
	c0.201-0.066,0.403-0.134,0.604-0.201c0.134-0.021,0.269-0.046,0.403-0.066c1.17-0.021,2.089,0.333,2.577,0.993
	c0.425-0.125,0.831-0.202,1.209-0.362c0.259-0.13,0.519-0.26,0.778-0.39c-0.092,0.523-0.518,1.085-0.872,1.37
	c-0.152,0.115-0.305,0.231-0.457,0.349h0.014c0.295-0.059,0.591-0.117,0.886-0.175c0.286-0.103,0.573-0.206,0.859-0.309
	C16.531,5.934,16.172,6.384,15.79,6.692"/>
</svg>
