<?xml version="1.0" encoding="utf-8"?>
<!-- Generator: Adobe Illustrator 15.1.0, SVG Export Plug-In . SVG Version: 6.00 Build 0)  -->
<!DOCTYPE svg PUBLIC "-//W3C//DTD SVG 1.1//EN" "http://www.w3.org/Graphics/SVG/1.1/DTD/svg11.dtd">
<svg version="1.1" id="Layer_1" xmlns="http://www.w3.org/2000/svg" xmlns:xlink="http://www.w3.org/1999/xlink" x="0px" y="0px"
	 width="23.115px" height="19.066px" viewBox="0 0 23.115 19.066" enable-background="new 0 0 23.115 19.066" xml:space="preserve">
<path fill="#FFFFFF" d="M1.396,0L0,19.066l21.208-0.383l1.907-16.586L1.396,0z M15.75,11.713c-1.561,1.1-3.141,2.176-4.766,3.2
	c-0.989,0.625-1.952,1.321-2.973,1.918C7.978,10.272,7.976,9.795,7.941,3.27C8.75,3.786,9.56,4.302,10.369,4.817
	c1.635,1.062,3.271,2.122,4.906,3.185c0.956,0.632,1.912,1.266,2.867,1.899c0.012,0.017,0.023,0.034,0.035,0.053
	C17.369,10.54,16.56,11.126,15.75,11.713"/>
</svg>
